<svg id="visual" viewBox="0 0 900 600" width="900" height="600" xmlns="http://www.w3.org/2000/svg" xmlns:xlink="http://www.w3.org/1999/xlink" version="1.1"><rect x="0" y="0" width="900" height="600" fill="#fff"></rect><path d="M0 527L21.5 523.7C43 520.3 86 513.7 128.8 510.2C171.7 506.7 214.3 506.3 257.2 506C300 505.7 343 505.3 385.8 504.5C428.7 503.7 471.3 502.3 514.2 508.2C557 514 600 527 642.8 531.5C685.7 536 728.3 532 771.2 529.7C814 527.3 857 526.7 878.5 526.3L900 526L900 601L878.5 601C857 601 814 601 771.2 601C728.3 601 685.7 601 642.8 601C600 601 557 601 514.2 601C471.3 601 428.7 601 385.8 601C343 601 300 601 257.2 601C214.3 601 171.7 601 128.8 601C86 601 43 601 21.5 601L0 601Z" fill="#fff8f0"></path><path d="M0 527L21.5 528.5C43 530 86 533 128.8 536.8C171.7 540.7 214.3 545.3 257.2 548.8C300 552.3 343 554.7 385.8 553.2C428.7 551.7 471.3 546.3 514.2 545.7C557 545 600 549 642.8 549.3C685.7 549.7 728.3 546.3 771.2 542C814 537.7 857 532.3 878.5 529.7L900 527L900 601L878.5 601C857 601 814 601 771.2 601C728.3 601 685.7 601 642.8 601C600 601 557 601 514.2 601C471.3 601 428.7 601 385.8 601C343 601 300 601 257.2 601C214.3 601 171.7 601 128.8 601C86 601 43 601 21.5 601L0 601Z" fill="#b8a598"></path><path d="M0 553L21.5 555.3C43 557.7 86 562.3 128.8 564.3C171.7 566.3 214.3 565.7 257.2 562.3C300 559 343 553 385.8 549.3C428.7 545.7 471.3 544.3 514.2 544.8C557 545.3 600 547.7 642.8 552C685.7 556.3 728.3 562.7 771.2 564.3C814 566 857 563 878.5 561.5L900 560L900 601L878.5 601C857 601 814 601 771.2 601C728.3 601 685.7 601 642.8 601C600 601 557 601 514.2 601C471.3 601 428.7 601 385.8 601C343 601 300 601 257.2 601C214.3 601 171.7 601 128.8 601C86 601 43 601 21.5 601L0 601Z" fill="#76584b"></path><path d="M0 568L21.5 567.3C43 566.7 86 565.3 128.8 564.8C171.7 564.3 214.3 564.7 257.2 564.7C300 564.7 343 564.3 385.8 566.2C428.7 568 471.3 572 514.2 573C557 574 600 572 642.8 572C685.7 572 728.3 574 771.2 575.2C814 576.3 857 576.7 878.5 576.8L900 577L900 601L878.5 601C857 601 814 601 771.2 601C728.3 601 685.7 601 642.8 601C600 601 557 601 514.2 601C471.3 601 428.7 601 385.8 601C343 601 300 601 257.2 601C214.3 601 171.7 601 128.8 601C86 601 43 601 21.5 601L0 601Z" fill="#37130a"></path></svg>