<?xml version="1.0" encoding="utf-8"?>
<!-- Generator: Adobe Illustrator 27.9.3, SVG Export Plug-In . SVG Version: 9.03 Build 53313)  -->
<svg version="1.1" id="Layer_1" xmlns="http://www.w3.org/2000/svg" xmlns:xlink="http://www.w3.org/1999/xlink" x="0px" y="0px"
	 viewBox="0 0 300 300" style="enable-background:new 0 0 300 300;" xml:space="preserve">
<style type="text/css">
	.st0{fill:#FDFDFD;}
	.st1{fill:#393839;}
	.st2{fill:#55B003;}
</style>
<g>
	<g>
		<path class="st0" d="M150,257.9c-144.1,0-288.3,0-432.4,0.1c-3.7,0-4.6-0.8-4.6-4.6c0.1-69.4,0.1-138.9,0-208.3
			c0-3.4,0.7-4.1,4.1-4.1c288.6,0.1,577.2,0.1,865.8,0c3.4,0,4.1,0.7,4.1,4.1c-0.1,69.6-0.1,139.2,0,208.8c0,3.4-0.7,4.1-4.1,4.1
			C438.6,257.9,294.3,257.9,150,257.9z M-162.9,201.9c0.1,1.9,1.2,3.4,2.4,4.8c2.5,2.9,5.4,2.9,7.2-0.4c3.1-5.7,3.7-11.8,2.4-18.1
			c-0.3-1.7-1.5-3.1-3.4-3.1c-2.1-0.1-3.3,1.4-3.7,3.3c-0.5,2.6-0.7,5.2-1.2,7.8c-0.4,1.9,0.1,4.5-2.9,4.9c1.6-2.8,1.9-5.8,2-8.9
			c0.1-4.9,0.2-9.9,0.3-14.8c0.2-5.8-0.4-6.4-6.2-6.3c5.5-2,7.7-0.6,8,5c0.1,2.9-0.9,5.8,0.4,8.7c6.4-1.6,8.5,0.1,8.4,6.4
			c0,2.8,0.2,5.7-0.5,8.4c-0.7,2.9,0.2,4.8,2.4,6.4c4.3,3.2,8.7,6.3,13.1,9.5c-29.8,31.1-81.4,31.4-111.4,0.3
			c-23.6-24.5-28.7-53.4-17.2-85.2c0.6-1.7,2-3-0.1-4.8c-3.2-2.8-6.3-5.9-9.7-9.1c-12.1,24.3-14.2,48.8-5.6,74.2
			c12.3,36.3,46.2,61.4,84.8,62.9c38.2,1.4,74.6-21.7,89.3-56.6c1-2.4,0.6-3.4-1.6-4.5c-8.7-4.4-17.4-9.1-26.1-13.6
			c-4.7-2.4-9.1-5.5-14.2-7c0-2.3,0.1-4.5,0.9-6.8c0.8-2.3,0.2-5.4-2.2-5.8c-4.1-0.7-8.6-1.5-12.7,0.6c-8.8-5.5-16.7-12.2-24.7-18.8
			c-4.8-4-6.7-10.2-11.3-14.2c-1.6-1.4-2.9-3.6-5.4-1.9c-1.8,1.3-4.8,2-3,5.6c0.6,1.1-0.4,3.3-2.6,3.3c2-3.1,1.1-5.8-1.1-8.5
			c-7.5-9.6-14.6-19.4-22.2-28.9c-1.7-2.2-1.7-2.9,0.7-4.3c10.5-5.9,21.6-9.4,33.6-10.3c50.3-3.6,90.8,39.8,83.7,89.7
			c-0.4,3.1-2.9,6.8-1.3,9c1.7,2.4,5.8,2.8,8.6,4.6c3.9,2.5,4.9,0.7,5.6-2.9c6-28,1.4-53.9-15.5-77.1c-2.9-4-2.6-5.8,0.7-9.1
			c8.6-8.2,16.7-16.9,26-26.3c0,12.5-0.1,23.5,0,34.4c0,5.5,3.1,8.8,8,8.9c4.9,0,8-3.2,8-8.8c0.1-17.5,0.1-35,0-52.5c0-6-3-9-8.9-9
			c-17.5-0.1-35-0.1-52.5,0c-5.5,0-8.9,3.3-8.9,8c0,4.7,3.4,7.9,8.9,8c9.8,0.1,19.7,0,29.5,0.1c1.2,0,2.6-0.8,3.7,0.8
			c-8.7,8.7-17.6,17.3-26.1,26.2c-2.5,2.6-3.9,2.6-6.8,0.3c-41.5-32.2-101.6-23.5-132.5,18.9c-2.6,3.5-2.9,6,0.3,9.3
			c9.1,9.5,19,18.1,28.8,26.9c1.8,1.6,3.2,0.9,4.9,0.2c7.7-3,15.4-5.9,23.7-6.9c-1.3,1.5-3.1,1.7-4.8,2.2c-6,1.8-11.9,3.8-17.9,5.8
			c-2.7,0.9-5.3,1.9-7.4,3.8c-1.8,1.6-2.4,3.5-1.1,5.8c1.2,2.2,3.1,1.6,4.8,1.2c1.9-0.5,3.8-1.1,5.8-1.6c2.5-0.5,3.7,0.7,2.8,3
			c-1.2,2.7-0.8,4.4,2,5.4c1.7,0.6,1.2,1.9,1.3,3.3c0.5,5.3,5.9,10.1,11.2,10.2c5,0.1,9.9,0,14.7-1.6c0.9-0.3,1.9-0.8,2.5,0.5
			c-1.4,0.7-4.1-0.3-3.8,2.3c0.9,6.8,2.2,13.6,4.3,20.2c0.8,2.6,2.3,4,5,3.7c4-0.4,7.8,1.1,11.8,1.3
			C-172.2,200.8-167.5,201.7-162.9,201.9z M-63.4,169.4c-1.3-1-1.3-2.6-1.6-4c-2-9.8-4.1-19.5-5.8-29.3c-0.5-3.2-2.2-3-4.5-3.1
			c-2.9-0.2-2.6,1.8-2.8,3.6c-1.5,15.6-3.1,31.1-4.7,46.7c-0.1,1.5-1.4,3.9,2,3.8c2.5-0.1,4.7,0.5,4.9-3.5
			c0.4-9.6,1.5-19.2,2.3-28.8c2.7,9.5,4.7,19.1,6.7,28.7c0.3,1.7,0.2,3.7,3,3.7c2.8,0,2.7-1.8,3-3.6c2.1-9.8,4.2-19.5,6.3-29.3
			c1.4,9.7,2.2,19.3,2.8,28.9c0.2,3.3,1.5,4.1,4.6,4c3.7-0.1,2.4-2.5,2.3-4.1c-1.4-15.4-2.9-30.8-4.4-46.2c-0.2-2,0-3.9-3.2-3.8
			c-2.6,0.1-3.8,0.6-4.3,3.4C-58.9,147.4-61.2,158.4-63.4,169.4z M42.1,152.6c-8.3-6.1-14.8-3.3-15.9,6.7c-0.7,6.4-0.7,13,0,19.4
			c0.4,4,2,7.3,6.2,8.9c4,1.5,6.6-0.7,9.2-3.7c0.4,4.5,3.5,3.2,5.8,3.1c2.8-0.1,1.5-2.5,1.5-3.8c0.1-15.9,0-31.9,0.1-47.8
			c0-2.4,0.4-4.4-3.4-4.3c-3.4,0.1-3.7,1.4-3.6,4.2C42.2,140.8,42.1,146.6,42.1,152.6z M571,153.1c-6.4-5.7-12.4-4.8-14.8,1.7
			c-0.6,1.7-1,3.5-1.1,5.3c-0.2,5.6-0.2,11.3,0,16.9c0.1,4.3,1.4,8.2,5.8,10.3c4.3,2.1,7.1-0.6,10.1-3.6c-0.2,4.6,2.9,3,4.9,3.3
			c2.9,0.4,2.2-1.8,2.2-3.3c0-16.4,0-32.9,0.1-49.3c0-2.6-0.7-3.4-3.3-3.4c-2.7,0-3.9,0.5-3.7,3.5C571.1,140.4,571,146.3,571,153.1z
			 M112.6,150.4c-5.1-1.4-8-0.1-9.8,4.3c-1.4,3.3-3.6,6.2-5.5,9.5c-1.5-1.9-0.9-3.6-1-5.1c-0.1-8-0.1-16,0-24c0-2.6,0-4.3-3.5-4.2
			c-3.6,0-3.6,1.7-3.6,4.3c0.1,15.8,0.1,31.6,0,47.4c0,2.8,0,4.6,3.8,4.5c3.9,0,3.2-2.2,3.3-4.5c0.1-4.3-0.4-8.6,0.9-12.9
			c2.7,4,5.2,8,6.9,12.2c1.9,4.9,5,5.9,9.8,4.5c-2.8-5.4-5.3-10.9-8.4-16c-1.7-2.9-1.5-5,0.2-7.7
			C108.2,158.9,110.2,154.8,112.6,150.4z M435.5,252.3c4.1,1.7,5.5-0.2,6.7-3.5c3.6-10.1,3.8-9.8,13-10c3.5,0,4.2,1.3,4,4.3
			c-0.2,2.3,0,4.7-0.1,7c-0.1,1.7,0.3,2.8,2.4,2.8c6.5-0.1,13,0,19.5,0c1.4,0,2.1-0.5,2.1-2c0-1.6-0.8-2-2.2-1.9c-1.8,0-3.7,0-5.5,0
			c-12,0-11.9,0-11.4-11.9c0.1-2.8,1.2-3.3,3.6-3.2c3.8,0.1,7.7,0.1,11.5,0c1.5-0.1,4.1,1.2,3.9-2.1c-0.1-2.9-2.3-1.7-3.7-1.8
			c-3.7-0.1-7.4-0.3-11,0c-3.7,0.3-4.8-1.2-4.3-4.5c0.1-1,0.1-2,0-3c-0.4-2.9,0.8-3.8,3.6-3.6c4.2,0.2,8.3,0,12.5,0.1
			c1.5,0,3,0.2,2.9-2.2c-0.1-2.1-1.6-1.7-2.8-1.7c-9.2,0-18.3,0-27.5,0c-1.4,0-2.4,0.1-3.1,1.7C445,228.6,440.2,240.4,435.5,252.3z
			 M-86.2,200.2c0,0.2-0.1,0.3-0.1,0.5c222.9,0,445.7,0,668.6,0c0-0.2,0-0.3,0-0.5C359.4,200.2,136.6,200.2-86.2,200.2z M-15,168.8
			c0-5,0.1-10-0.1-15c0-1.3,1.1-3.4-1.2-3.7c-1.8-0.2-4.5-1.2-5.4,0.7c-1,2-1.1,1.5-2.4,0.5c-5.4-4.2-10.9-2.6-12.6,3.9
			c-2.3,8.6-2.1,17.4-0.3,26.2c1.2,5.4,8.8,9.4,13,4.1c0.6-0.8,1.2-2.3,2,0.1c1,3,3.7,1.2,5.5,1.2c2.3,0,1.3-2.3,1.3-3.5
			C-15,178.4-15,173.6-15,168.8z M513.8,168.7c0-5,0.1-10,0-15c0-1.3,1-3.4-1.3-3.6c-1.8-0.1-4.7-1.2-5.4,0.8c-1,2.9-1.5,1-2.4,0.3
			c-4.9-3.7-10.2-2.8-12,2.8c-3.2,9.3-3.1,19-0.4,28.4c1.6,5.7,7.8,7.1,12.3,3.3c1.3-1.1,1.6-2.3,2.6,0.4c0.7,1.9,3.6,0.8,5.4,0.7
			c2-0.1,1.2-2,1.2-3.2C513.9,178.7,513.8,173.7,513.8,168.7z M308.9,252.4c-1.9-1.3-2.8-2-3.8-2.7c-4.7-3.1-7-7-4.1-12.6
			c0.6-1.1,0.4-2.6,0.6-3.9c0.2-1.7,0.3-3.3-2.3-3.3c-2.3,0-2.8,0.8-2.8,2.9c0,2.4,0.6,4.9-1,7.5c-0.9-0.7-1.5-1.2-2.1-1.7
			c-2.5-2-4.9-4-7.6-6.1c8-5.5,9.9-10.4,6.6-14.9c-3.1-4.2-10.8-4.9-15.4-1.4c-4.8,3.6-4.4,8.9,1.1,15.4c-0.9,0.8-1.8,1.5-2.6,2.3
			c-3.6,3.6-4.7,8-3,12.8c1.7,4.8,5.6,6.8,10.4,7.3c4.2,0.4,8.1-0.9,10.9-4c2.3-2.5,3.7-2,5.4,0.2
			C301.4,252.9,304.1,253.4,308.9,252.4z M-5.9,168.5c0,5.1,0.2,10.3-0.1,15.4c-0.2,3.2,1.6,2.9,3.7,3c2.4,0.1,3.6-0.4,3.5-3.2
			c-0.2-6.6-0.1-13.3-0.1-19.9c0-2.5-0.3-5,0.7-7.4c0.8-1.7,2-2.6,3.9-2.5c1.9,0.1,3.1,1.1,3.5,3c0.3,1.6,0.4,3.3,0.4,4.9
			c0,7.5,0.1,15,0,22.4c-0.1,2.9,1.6,2.8,3.5,2.6c1.7-0.1,3.8,0.7,3.8-2.4c-0.1-9.3,0.2-18.6-0.3-27.9c-0.4-7-6.4-9.8-12.5-6.3
			c-1.3,0.7-1.6,1.7-3.7,0c-3.2-2.5-6.2-0.1-6.3,4.2C-5.9,159.2-5.9,163.9-5.9,168.5z M276,168.2c0,5.1,0.2,10.3-0.1,15.4
			c-0.2,3.2,1.4,3.3,3.9,3.4c2.7,0.1,3.3-0.9,3.3-3.4c-0.1-7.3,0-14.6-0.1-21.9c0-1.7,0-3.3,0.6-4.9c0.8-1.9,2.1-3,4.2-2.8
			c1.9,0.2,3,1.3,3.3,3.1c0.3,1.5,0.4,3,0.4,4.4c0,7.5,0.1,14.9,0,22.4c0,2.5,0.9,3.3,3.2,3c1.8-0.2,4.2,0.9,4.1-2.6
			c-0.2-9.1,0.2-18.3-0.3-27.4c-0.4-7.4-6.3-10.3-12.7-6.5c-1.6,1-2,0.8-3.6-0.2c-3.5-2.1-6.1-0.1-6.2,4
			C276,158.9,276,163.6,276,168.2z M523,168.4c0,5,0.1,10-0.1,14.9c-0.1,2.7,0.5,3.8,3.5,3.8c2.8,0,3.7-0.7,3.6-3.6
			c-0.2-6.8-0.1-13.6-0.1-20.4c0-1.7,0-3.3,0.3-5c0.4-2.2,1.5-4.1,4.2-4.1c2.8,0,3.6,2,4,4.2c0.2,1.3,0.1,2.6,0.1,4
			c0,7.3,0.1,14.6-0.1,21.9c-0.1,2.7,1.2,3,3.3,2.8c1.9-0.1,4,0.6,4-2.7c-0.2-9,0.1-17.9-0.3-26.9c-0.3-7.7-6.2-10.6-12.9-6.8
			c-1.2,0.7-1.5,1.4-3.2-0.1c-3.1-2.6-6.4-0.2-6.4,4C523,159.1,523,163.7,523,168.4z M327,169.1c-0.2,4.2,0.2,8.5,2,12.5
			c2.1,4.8,6.1,7,11.2,6.4c4.8-0.6,7.9-3.7,8.9-8.8c0.8-4.1-0.5-5.2-4.5-4.2c-2.3,0.6-1.3,2.4-1.7,3.6c-0.6,1.6-1.2,3.2-3.2,3.4
			c-1.6,0.2-3.1-0.3-3.8-1.8c-1.5-2.9-2.1-6.3-1.1-9.2c0.7-2.2,3.8-0.7,5.8-1c0.2,0,0.3,0,0.5,0c10.2,0,10.4-0.2,8.4-10.5
			c-0.1-0.7-0.2-1.3-0.4-2c-1.3-5-4.6-8.1-9.2-8.5c-4.8-0.4-8.6,1.9-10.6,6.7C327.4,159.9,326.8,164.3,327,169.1z M267.2,164.9
			c-0.4-2.5-0.6-5-1.2-7.4c-1.2-5.1-4.6-8.1-9.2-8.5c-4.7-0.4-8.8,1.8-10.6,6.6c-3.2,8.5-3.4,17.3-0.2,25.9c1.8,4.9,6,7.1,11.2,6.4
			c4.8-0.6,7.9-3.7,8.9-8.7c0.8-4.1,0-4.7-3.9-4.3c-2.3,0.2-1.9,1.7-2.2,3.1c-0.4,2.1-1.2,3.9-3.7,3.9c-2.7,0-3.7-1.7-4.3-4
			c-1.7-7.3-1.3-7.9,6-7.9c1.3,0,2.7-0.1,4,0C266,170.5,268.1,169.3,267.2,164.9z M189,169.2c-0.2,4,0.3,8,1.7,11.8
			c2,5.2,6,7.6,11.3,7c5-0.6,8-3.8,9.1-9.1c0.7-3.3-0.4-4.1-3.5-3.9c-2.4,0.1-2.5,1.2-2.8,3.1c-0.8,3.9-4,5.4-6.3,3
			c-2.6-2.8-2.6-6.6-1.9-9.9c0.5-2.2,3.4-1,5.2-1c11.4-0.1,11.8-0.6,9.2-12c-0.1-0.3-0.1-0.7-0.2-1c-1.3-4.7-4.6-7.7-9-8.1
			c-4.7-0.4-8.6,1.9-10.7,6.6C189.3,159.9,188.8,164.5,189,169.2z M58,169.2c-0.2,4.1,0.3,8.4,2,12.4c2.1,4.8,6.1,7,11.3,6.3
			c4.8-0.6,7.9-3.7,8.8-8.8c0.7-3.8-0.9-5.2-4.6-4.1c-2.3,0.6-1.2,2.4-1.6,3.7c-0.6,1.6-1.2,3.1-3.3,3.3c-1.6,0.1-3.1-0.3-3.8-1.8
			c-1.4-2.9-2.1-6.3-1.1-9.2c0.8-2.1,3.8-0.9,5.9-0.9c10.8-0.1,10.9-0.3,8.7-11.2c-0.1-0.7-0.2-1.3-0.4-2c-1.3-4.6-4.7-7.6-9.2-7.9
			c-4.9-0.3-8.4,1.8-10.4,6.2C58.4,159.6,57.9,164.2,58,169.2z M450.1,167.9c0.1-3.1-0.1-7-1.3-10.9c-1.4-4.8-5.4-7.9-10.2-8
			c-5-0.1-9.2,2.5-10.6,7.3c-2.3,8-2.3,16.1,0,24.1c1.5,5.1,5.4,7.6,10.4,7.6c4.8,0,8.8-3,10.4-7.8
			C450.1,176.5,450.1,172.6,450.1,167.9z M380.1,222.6c1.5-4,0.2-6.2-3.7-7c-2.3-0.5-4.5-1.2-6.8-1.5c-9.5-1.2-17.8,2.8-20.8,10.3
			c-3.2,8-3.2,16.2,2.4,23.2c5.4,6.7,13,7.4,21,5.7c8.4-1.8,8.4-1.9,8.4-10.3c0-9,0-9.1-9.2-8.9c-1.9,0-5.5-1.7-5.7,1.7
			c-0.2,4.3,3.8,1.4,5.7,2.2c1.4,0.6,4.3-1,3.9,2.1c-0.3,3,2.1,7-2.1,8.9c-7.1,3.2-15.8,0.4-19.2-5.9c-4.1-7.7-1.9-19,4.5-23
			c2.2-1.4,4.5-1.9,7.1-2C371,217.6,375.6,219.9,380.1,222.6z M82.3,222.5c1.4-4,0-6.2-3.9-7c-2.3-0.5-4.5-1.2-6.8-1.5
			c-9.5-1.1-17.7,2.9-20.7,10.4c-3.2,8-3.1,16.2,2.5,23.1c5.4,6.6,13.1,7.3,21,5.5c8.3-1.8,8.3-1.9,8.3-10.4c0-8.8,0-9-8.8-8.7
			c-2,0.1-5.9-2.1-6,1.8c-0.1,4.1,3.8,1.3,5.8,2c1.3,0.5,4-0.9,3.8,1.8c-0.2,3.1,2.1,7-1.7,9.1c-6.4,3.5-16,0.8-19.3-5.5
			c-2.6-4.9-2.9-10.2-1.4-15.5c1.7-6.2,6.4-9.6,12.8-9.8C73.2,217.7,77.7,220.1,82.3,222.5z M196.1,233.6c0,2.3,0,4.7,0,7
			c0,13.2,0,13.2,13.2,12.3c10.9-0.7,18.1-7.5,18.6-17.6c0.6-11.2-5.4-18.4-16.9-20c-3.8-0.5-7.6-0.1-11.4-0.3c-3-0.2-3.6,1-3.5,3.7
			C196.2,223.6,196.1,228.6,196.1,233.6z M502,233.7c0,2.3,0,4.7,0,7c0,12.8,0,12.8,12.9,12.2c10.9-0.5,18.3-7.2,19-17.3
			c0.8-11.2-5.2-18.6-16.6-20.2c-4.2-0.6-8.6-0.2-12.9-0.4c-2.2-0.1-2.4,1.1-2.3,2.8C502,223.1,502,228.4,502,233.7z M-7.1,252.4
			c-3.6-4.2-7-8.2-10.5-12.1c-2-2.3-3.7-3.8,0.3-6.2c3.9-2.3,4.8-6.7,3.9-11.1c-0.9-4.4-4-6.7-8.3-7.6c-4.6-1-9.3-0.2-13.9-0.5
			c-2.2-0.1-2.3,1.1-2.3,2.8c0,10.8,0,21.6,0,32.4c0,1.8,0.4,2.7,2.4,2.7c2,0,2.7-0.7,2.6-2.6c-0.1-2.5,0-5,0-7.5c0-4.9,1.4-6,6.1-5
			c1.5,0.3,2.2,1.4,3,2.4c2.6,3,5.4,5.9,7.7,9.2C-13.8,252.7-11.2,253.6-7.1,252.4z M132,234.1c0-5.3,0-10.6,0-15.9
			c0-1.7,0.2-3.2-2.4-3.2c-2.5,0-2.5,1.2-2.6,3.1c-0.2,3.9,1.9,9.4-0.9,11.3c-2.8,2-8,0.6-12.1,0.7c-0.3,0-0.7,0-1,0
			c-3.7,0.6-5.5-0.6-5-4.7c0.4-2.6,0-5.3,0.1-8c0.1-1.7-0.5-2.4-2.3-2.3c-1.8,0-2.7,0.3-2.7,2.4c0.1,11,0.1,21.9,0,32.9
			c0,1.8,0.5,2.7,2.5,2.7c2,0,2.6-0.8,2.5-2.6c-0.1-4.3,0.1-8.6-0.1-13c-0.1-2.4,0.4-3.7,3.2-3.5c4.3,0.2,8.6,0.2,13,0
			c2.2-0.1,2.9,0.6,2.8,2.8c-0.1,4.5,0,9-0.1,13.5c0,1.7,0.1,2.8,2.3,2.8c2.4,0.1,2.7-1,2.7-3C131.9,244.7,132,239.4,132,234.1z
			 M407,156.9c0-6.7-0.1-13.3,0.1-20c0.1-2.8-0.3-4.1-3.7-4.1c-3.3,0-3.7,1.3-3.7,4.1c0.1,11.5,0,23,0.1,34.5
			c0.1,5.1-2.3,12.1,1,14.7c3.1,2.6,9.8,0.7,15,0.8c0.2,0,0.3,0,0.5,0c2.5,0.4,3-0.8,3.1-3.1c0-2.6-1.1-3.1-3.3-2.9
			c-2,0.1-4-0.1-6,0.1c-2.4,0.2-3.2-0.7-3.1-3.1C407.1,170.9,407,163.9,407,156.9z M153.1,233.9c0,5.3,0,10.6,0,16
			c0,1.5-0.2,3,2.1,3c7-0.1,14,0,21,0c1.2,0,1.8-0.5,1.8-1.8c0-1.4-0.2-2.2-1.9-2.2c-2.3,0-4.7,0-7,0c-11.8,0-11.7,0-11.2-12
			c0.1-2.5,0.9-3.1,3.2-3c4.7,0.1,9.3,0.1,14,0c1.2,0,2.7,0.5,2.8-1.7c0.1-2.3-1.3-2.2-2.8-2.2c-4.2,0-8.3-0.2-12.5,0.1
			c-3.7,0.3-5.3-0.7-4.6-4.6c0.2-1,0.1-2,0-3c-0.4-2.9,0.9-3.7,3.6-3.6c4.5,0.2,9,0,13.5,0.1c1.6,0,3,0.1,2.9-2.2
			c-0.1-2.2-1.6-1.7-2.8-1.7c-6.3,0-12.6,0.1-19-0.1c-2.9-0.1-3.2,1.2-3.2,3.6C153.2,223.6,153.1,228.8,153.1,233.9z M553,233.8
			c0,5.3,0,10.6,0,16c0,1.4-0.4,3.1,2,3.1c7,0,14,0,21,0c1.6,0,1.9-0.7,1.9-2.1c0-1.7-1-1.8-2.2-1.8c-2.2,0-4.3,0-6.5,0
			c-11.5,0-11.5,0-11.3-11.4c0-2.7,0.7-3.9,3.6-3.7c3.8,0.2,7.7,0.3,11.5,0c1.7-0.1,5,1.9,4.8-2c-0.2-3.6-3.3-1.5-5.1-1.8
			c-2.4-0.4-5-0.1-7.5-0.1c-7.4,0-7.3,0-7.3-7.4c0-2.7,0.6-3.9,3.6-3.7c4.5,0.2,9,0.1,13.5,0.1c1.4,0,3.1,0.4,3-2.1
			c-0.1-2.1-1.4-1.9-2.7-1.9c-6.5,0-13,0.1-19.5,0c-2.3,0-2.8,0.8-2.8,2.9C553.1,223.2,553,228.5,553,233.8z M163.3,180.4
			c0,2.6-1.3,5.1,2.1,6.5c4.4,1.9,9.7,1,12.8-2.5c3.2-3.6,3.5-8.8,0.5-12.9c-1.4-2-3.4-3.6-5.1-5.4c-2.3-2.6-6.7-4.6-4.5-8.9
			c2-4,6.1-1.9,9.8-1.6c-0.6-2.1,1.5-4.7-1.8-6c-4.1-1.7-9.6-0.7-12.4,2.6c-3.2,3.6-3.5,7.7-1.6,12.1c1.3,2.8,3.7,4.6,5.9,6.7
			c2.5,2.4,6.6,4.7,4.3,9C171,184.1,167.2,181.3,163.3,180.4z M236.3,155.3c0.6-5.5-0.2-6.5-5.5-6.3c-5,0.1-8.2,3-9.6,7.4
			c-2.6,8.3-2.5,16.8,0.1,25c1.5,4.7,5.1,6.7,10,6.6c5.2-0.2,5.6-0.7,5.1-6.3c-6.6,0.7-8.5-0.8-9.1-7.6c-0.3-3.8-0.4-7.7,0.1-11.4
			C228,156,229.9,154.7,236.3,155.3z M310,170.6c0,4,0.1,8,0,12c-0.1,2.6-0.3,4.6,3.7,4.6c3.7-0.1,3.4-2,3.4-4.3
			c0-8.1,0-16.3,0-24.4c0-1.9-0.2-3.3,2.7-3.5c3.3-0.2,1.6-4.2,1.2-4.3c-6.3-0.5-3.4-5.2-3.8-8.1c-0.2-1.9-0.8-2.4-2.7-2.5
			c-3.2-0.3-4.8,0.4-4.6,4.2c0.2,2.4,1.8,6.2-3.5,6.3c-1.1,0-1.3,4.2,0.2,4.3c4.6,0.1,3.2,3.2,3.3,5.5
			C310.1,163.6,310,167.1,310,170.6z M459.5,158.8c0,8.1,0.1,16.3,0,24.4c0,2.6,0.4,3.9,3.4,3.8c2.9,0,3.6-1,3.5-3.7
			c-0.1-16.3-0.1-32.6,0-48.8c0-2.9-1-3.6-3.7-3.6c-2.7,0-3.3,1-3.3,3.5C459.6,142.5,459.5,150.7,459.5,158.8z M482.4,159.2
			c0-8.1-0.1-16.3,0-24.4c0-2.5-0.2-4-3.4-3.9c-2.8,0.1-3.6,0.9-3.6,3.7c0.1,16.3,0.1,32.6,0,48.8c0,2.8,0.8,3.6,3.6,3.7
			c3.2,0.1,3.4-1.5,3.3-3.9C482.3,175.2,482.4,167.2,482.4,159.2z M34.5,215.5c-3.3-1.1-5.3-0.5-6.9,2.4c-2.5,4.6-5.5,8.9-8.6,13.9
			c-3.1-5-5.9-9.3-8.4-13.8c-1.6-3-3.6-3.9-7-2.5c0.7,1.2,1.2,2.2,1.8,3.2c6.1,9.8,13.6,19.1,11.1,31.9c-0.3,1.7,0.6,2.3,2.3,2.3
			c2,0,2.7-0.7,2.6-2.6c-0.1-1.8,0.2-3.7-0.1-5.5c-0.8-5.9,1-11,4.5-15.8C29.1,224.8,31.6,220.1,34.5,215.5z M128.1,154
			c1-5-2.1-4-4.6-4.1c-3.6-0.1-2.3,2.6-2.3,4.3c-0.1,9.7,0,19.3-0.1,29c0,2.5,0.3,3.8,3.4,3.9c3.3,0.1,3.8-1.2,3.7-4
			c-0.2-6.7-0.1-13.3,0-20c0-4.4,1.8-7.4,6.5-8c1.4-0.2,2.7-0.2,2.4-2.2c-0.2-1.3,0.6-2.9-0.6-3.7c-1.2-0.7-2.6,0.1-3.7,0.9
			C131.3,151.1,130,152.4,128.1,154z M365.8,154.2c1.3-4.8-1.5-4.1-3.8-4.3c-3.2-0.3-3,1.6-2.9,3.7c0,10,0.1,20-0.1,30
			c-0.1,3.2,1.3,3.3,3.8,3.4c2.7,0.1,3.3-0.9,3.3-3.4c-0.1-6.8-0.1-13.7,0-20.5c0-4.3,1.7-7.4,6.4-8c1.3-0.2,2.8-0.1,2.5-2.1
			c-0.2-1.3,0.6-3-0.6-3.8c-1.1-0.8-2.6,0.1-3.7,0.8C369.3,151.1,368,152.3,365.8,154.2z M400,234.1c0,5.3,0,10.6,0,15.9
			c0,1.6,0,2.9,2.2,2.9c6.5-0.1,13,0,19.4,0c1.3,0,2.2-0.1,2.3-1.8c0.1-1.9-0.9-2.2-2.4-2.2c-4.3,0-8.6-0.1-12.9,0.1
			c-2.8,0.1-3.7-0.8-3.6-3.6c0.2-9,0.1-17.9,0.1-26.9c0-1.8,0.5-3.7-2.5-3.6c-3.1,0.1-2.4,2.1-2.4,3.7
			C400,223.8,400,228.9,400,234.1z M-72.3,236c0,4.5,0,9,0,13.5c0,1.5-0.5,3.4,2.2,3.5c3,0.1,2.5-1.9,2.5-3.7c0-9,0.1-18,0-26.9
			c0-2.5,0.7-3.6,3.4-3.4c2.6,0.2,5.3,0,8,0c1.2,0,2.3,0,2.3-1.7c0.1-1.8-0.7-2.2-2.4-2.2c-9,0-18,0-27,0c-1.3,0-2.6-0.2-2.7,1.9
			c0,2,1.1,2.1,2.5,2.1c2.7,0,5.3,0.1,8,0c2.4-0.2,3.2,0.7,3.2,3.1C-72.4,226.7-72.3,231.3-72.3,236z M145.6,168.4
			c0,5.3,0.1,10.6-0.1,15.9c-0.1,2.8,1.5,2.7,3.4,2.7c2,0,3.5,0,3.4-2.8c-0.1-10.4-0.1-20.9,0-31.3c0-2.5-0.9-3.1-3.2-3
			c-2.2,0.1-3.8,0-3.7,3C145.7,158.1,145.6,163.2,145.6,168.4z M152.8,137.8c-0.5-2.1-1.5-3.8-3.9-3.7c-2.6,0.1-3.9,1.9-3.7,4.3
			c0.2,2.2,1.6,3.7,4,3.5C151.5,141.7,152.6,140.1,152.8,137.8z"/>
		<path class="st1" d="M-207.8,135c-8.3,1-16,3.9-23.7,6.9c-1.7,0.7-3.1,1.4-4.9-0.2c-9.7-8.8-19.7-17.4-28.8-26.9
			c-3.2-3.3-2.9-5.8-0.3-9.3c30.8-42.3,90.9-51,132.5-18.9c2.9,2.2,4.2,2.3,6.8-0.3c8.5-8.9,17.3-17.5,26.1-26.2
			c-1.1-1.5-2.5-0.8-3.7-0.8c-9.8-0.1-19.7,0-29.5-0.1c-5.4,0-8.9-3.3-8.9-8c0-4.8,3.4-8,8.9-8c17.5-0.1,35-0.1,52.5,0
			c5.9,0,8.9,3.1,8.9,9c0.1,17.5,0.1,35,0,52.5c0,5.5-3.2,8.8-8,8.8c-4.8,0-7.9-3.4-8-8.9c-0.1-10.9,0-21.9,0-34.4
			c-9.2,9.4-17.4,18.1-26,26.3c-3.4,3.2-3.7,5-0.7,9.1c17,23.2,21.6,49.2,15.5,77.1c-0.8,3.5-1.7,5.4-5.6,2.9
			c-2.8-1.8-6.9-2.3-8.6-4.6c-1.6-2.3,0.9-5.9,1.3-9c7-49.9-33.5-93.3-83.7-89.7c-12,0.9-23.1,4.4-33.6,10.3
			c-2.4,1.4-2.5,2.1-0.7,4.3c7.5,9.5,14.7,19.3,22.2,28.9c2.2,2.8,3.1,5.4,1.1,8.5l0-0.1c-0.6,0.2-1.3,0.1-1.1,1.1L-207.8,135z"/>
		<path class="st2" d="M-193.9,173c-0.6-1.3-1.6-0.8-2.5-0.5c-4.8,1.6-9.8,1.7-14.7,1.6c-5.3-0.1-10.7-4.9-11.2-10.2
			c-0.1-1.3,0.4-2.6-1.3-3.3c-2.8-1-3.2-2.7-2-5.4c1-2.3-0.3-3.5-2.8-3c-1.9,0.4-3.8,1.1-5.8,1.6c-1.8,0.4-3.6,1.1-4.8-1.2
			c-1.2-2.3-0.6-4.2,1.1-5.8c2.1-1.9,4.8-2.9,7.4-3.8c5.9-2,11.9-3.9,17.9-5.8c1.7-0.5,3.5-0.8,4.8-2.2c0,0-0.1,0-0.1,0
			c0.6-0.1,1.4-0.1,1.1-1.1l0,0.1c2.2-0.1,3.2-2.2,2.6-3.3c-1.9-3.6,1.1-4.3,3-5.6c2.5-1.7,3.9,0.5,5.4,1.9
			c4.6,4.1,6.5,10.3,11.3,14.2c8,6.6,15.8,13.3,24.7,18.8l0-0.1c-0.2,0.9,0.2,1.3,1.1,1.1l-0.1-0.1c0.4,1.6,1,3.2,1.4,4.9
			c0.6,2.6,0.1,6,3.7,7.2l-0.1-0.1c1.8,2,3.6,3.2,6.1,1l-0.1,0.1c1.4,0,2.1-0.7,2.1-2.1l0,0.1c5.2,1.4,9.5,4.6,14.2,7
			c8.8,4.4,17.4,9.1,26.1,13.6c2.2,1.1,2.6,2.1,1.6,4.5c-14.7,34.9-51.1,58-89.3,56.6c-38.6-1.4-72.5-26.6-84.8-62.9
			c-8.6-25.4-6.5-49.9,5.6-74.2c3.4,3.3,6.5,6.3,9.7,9.1c2,1.8,0.7,3.1,0.1,4.8c-11.5,31.9-6.4,60.7,17.2,85.2
			c30,31.1,81.6,30.8,111.4-0.3c-4.4-3.2-8.7-6.3-13.1-9.5c-2.2-1.6-3.1-3.5-2.4-6.4c0.7-2.7,0.4-5.6,0.5-8.4c0.1-6.3-2-7.9-8.4-6.4
			c-1.3-2.8-0.3-5.8-0.4-8.7c-0.3-5.6-2.5-7-8-5l0.1-0.1c-1.8-0.2-1.3-1.5-1.2-2.6c0.4-2.9-0.9-4.8-3.4-5.9c-2.6-1.2-4.5,0.1-6,2
			c-0.5,0.6-0.6,1.7-1.6,1.6c-5.2-0.1-6.5,3.8-7.7,7.6c-0.7,2.4-1.7,2.4-3.4,1.3c-0.8-0.5-1.7-1.1-2.7-1l0.1,0.1
			c-0.2-1.3-1.3-1-2.1-1.1L-193.9,173z"/>
		<path class="st1" d="M-63.4,169.4c2.2-11.1,4.5-22.1,6.6-33.2c0.5-2.8,1.8-3.3,4.3-3.4c3.1-0.1,3,1.9,3.2,3.8
			c1.5,15.4,3,30.8,4.4,46.2c0.1,1.7,1.4,4-2.3,4.1c-3.1,0.1-4.4-0.7-4.6-4c-0.5-9.6-1.4-19.2-2.8-28.9c-2.1,9.8-4.2,19.5-6.3,29.3
			c-0.4,1.8-0.3,3.6-3,3.6c-2.8,0-2.7-2-3-3.7c-2-9.6-3.9-19.2-6.7-28.7c-0.8,9.6-1.8,19.2-2.3,28.8c-0.2,4-2.4,3.5-4.9,3.5
			c-3.4,0.1-2.1-2.3-2-3.8c1.5-15.6,3.1-31.1,4.7-46.7c0.2-1.8-0.1-3.7,2.8-3.6c2.3,0.1,3.9-0.1,4.5,3.1c1.7,9.8,3.8,19.6,5.8,29.3
			C-64.7,166.8-64.8,168.4-63.4,169.4z"/>
		<path class="st1" d="M-162.9,201.9c-4.6-0.1-9.4-1.1-13.7-1.4c-3.9-0.2-7.8-1.7-11.8-1.3c-2.8,0.3-4.2-1.2-5-3.7
			c-2.1-6.6-3.4-13.3-4.3-20.2c-0.3-2.6,2.4-1.7,3.8-2.3l-0.1-0.1c0.2,1.3,0.9,1.8,2.1,1.1l-0.1-0.1c5.1,2.9,4.8,7.2,3.2,11.9
			c0,0.1,0.1,0.3,0.1,0.5c-0.3-0.1-0.5-0.1-0.8-0.2c0,0.2,0,0.4,0,0.6c0.2-0.2,0.5-0.4,0.7-0.5c1-1.3,1.5-2.8,2-4.4
			c1.1-3.8,2.4-7.5,3.9-11.2c0.7-1.7,2-3.3,4.2-2.4c1.9,0.8,1.6,2.4,1.4,4.2c-0.5,4.6-2.2,9-1.6,13.7c-1.2,1.6-2.7,3-1.8,5.3
			c-0.2-0.1-0.4-0.3-0.6-0.4c-0.1,0.2-0.2,0.4-0.2,0.6c0.3-0.1,0.5-0.2,0.8-0.4c1.2-1.6,2.6-3,1.8-5.3c0.9,0.2,1-0.4,1.1-1.1
			c0.6-5.4,1.3-10.8,1.8-16.3c0.2-2.8,0.6-5,4.1-4.8c3.4,0.2,3.2,2.5,3.2,5c0.1,5.4-1.8,10.7-0.5,16.8c1.4-5.2,1.1-10.3,3.5-14.5
			l-0.1,0.1c5.8-0.1,6.4,0.5,6.2,6.3c-0.1,4.9-0.2,9.9-0.3,14.8c0,3.1-0.3,6.2-2,8.9l0.1-0.1c-0.7,0.1-1.7-0.2-1.1,1.1L-162.9,201.9
			z M-173.7,195.3c3,0.5,3.6-1,3.8-3.2C-171.4,193.3-172.6,194.3-173.7,195.3z"/>
		<path class="st1" d="M42.1,152.6c0-6,0.1-11.8,0-17.5c-0.1-2.7,0.2-4.1,3.6-4.2c3.8-0.1,3.4,2,3.4,4.3c0,15.9,0,31.9-0.1,47.8
			c0,1.3,1.2,3.7-1.5,3.8c-2.3,0.1-5.4,1.4-5.8-3.1c-2.6,3-5.2,5.2-9.2,3.7c-4.1-1.6-5.7-4.9-6.2-8.9c-0.7-6.5-0.7-13,0-19.4
			C27.3,149.2,33.8,146.4,42.1,152.6z M42.3,168.2c-0.3-3.1-0.5-6.3-0.9-9.4c-0.3-1.9-1.2-3.6-3.4-3.7c-2.5-0.1-3.6,1.6-4,3.7
			c-1.3,6.6-1.3,13.2,0.1,19.8c0.3,1.7,1.2,3.2,3.2,3.3c2.2,0.1,3.2-1.4,3.8-3.3C42.2,175.2,42,171.7,42.3,168.2z"/>
		<path class="st1" d="M571,153.1c0-6.7,0.2-12.7-0.1-18.6c-0.1-3,1.1-3.5,3.7-3.5c2.6,0,3.3,0.8,3.3,3.4c-0.1,16.4,0,32.9-0.1,49.3
			c0,1.5,0.7,3.7-2.2,3.3c-2-0.2-5,1.4-4.9-3.3c-3,3.1-5.7,5.7-10.1,3.6c-4.4-2.1-5.6-6-5.8-10.3c-0.2-5.6-0.1-11.3,0-16.9
			c0-1.8,0.5-3.7,1.1-5.3C558.6,148.3,564.6,147.3,571,153.1z M571.2,168.1c-0.2-3-0.4-6-0.8-8.9c-0.3-2.1-1.1-4-3.6-4.1
			c-2.5-0.1-3.5,1.7-3.9,3.8c-1.2,6.4-1.2,12.9,0,19.4c0.4,1.9,1.2,3.6,3.4,3.7c2.2,0.1,3.1-1.5,3.7-3.4
			C571.1,175.1,570.9,171.6,571.2,168.1z"/>
		<path class="st1" d="M112.6,150.4c-2.4,4.3-4.5,8.5-6.9,12.4c-1.7,2.7-1.9,4.8-0.2,7.7c3.1,5.1,5.6,10.5,8.4,16
			c-4.8,1.4-7.9,0.4-9.8-4.5c-1.6-4.3-4.2-8.2-6.9-12.2c-1.3,4.3-0.7,8.6-0.9,12.9c-0.1,2.3,0.6,4.4-3.3,4.5c-3.8,0-3.8-1.8-3.8-4.5
			c0.1-15.8,0.1-31.6,0-47.4c0-2.6,0-4.3,3.6-4.3c3.6,0,3.6,1.7,3.5,4.2c-0.1,8-0.1,16,0,24c0,1.5-0.6,3.2,1,5.1
			c2-3.3,4.2-6.2,5.5-9.5C104.7,150.4,107.6,149.1,112.6,150.4z"/>
		<path class="st2" d="M435.5,252.3c4.7-11.9,9.5-23.7,14.2-35.6c0.7-1.7,1.7-1.7,3.1-1.7c9.2,0,18.3,0,27.5,0
			c1.2,0,2.7-0.4,2.8,1.7c0.1,2.4-1.4,2.2-2.9,2.2c-4.2,0-8.3,0.2-12.5-0.1c-2.8-0.1-4,0.8-3.6,3.6c0.1,1,0.1,2,0,3
			c-0.5,3.4,0.6,4.8,4.3,4.5c3.6-0.3,7.3-0.2,11,0c1.4,0.1,3.6-1.1,3.7,1.8c0.1,3.3-2.5,2-3.9,2.1c-3.8,0.2-7.7,0.2-11.5,0
			c-2.4-0.1-3.5,0.4-3.6,3.2c-0.5,11.9-0.6,11.9,11.4,11.9c1.8,0,3.7,0,5.5,0c1.3,0,2.2,0.3,2.2,1.9c0,1.5-0.6,2-2.1,2
			c-6.5,0-13-0.1-19.5,0c-2.1,0-2.5-1.1-2.4-2.8c0.1-2.3-0.1-4.7,0.1-7c0.3-3-0.4-4.4-4-4.3c-9.2,0.1-9.3-0.1-13,10
			C441,252.1,439.6,253.9,435.5,252.3z M447.6,234.6c11.5,0.9,11.5,0.9,11.5-9.7c0-0.8,0.1-1.7,0-2.5c-0.2-1.3,0.9-3.2-1.6-3.5
			c-2-0.2-3.8-0.2-4.7,2.4C451.4,225.7,449.5,229.9,447.6,234.6z"/>
		<path class="st1" d="M-86.2,200.2c222.8,0,445.7,0,668.5,0c0,0.2,0,0.3,0,0.5c-222.9,0-445.7,0-668.6,0
			C-86.3,200.5-86.3,200.3-86.2,200.2z"/>
		<path class="st1" d="M-15,168.8c0,4.8,0.1,9.6,0,14.5c0,1.3,1,3.5-1.3,3.5c-1.8,0-4.5,1.8-5.5-1.2c-0.8-2.4-1.4-0.9-2-0.1
			c-4.3,5.4-11.9,1.3-13-4.1c-1.9-8.7-2-17.5,0.3-26.2c1.7-6.5,7.3-8.1,12.6-3.9c1.3,1,1.4,1.5,2.4-0.5c0.9-1.9,3.6-0.9,5.4-0.7
			c2.3,0.3,1.2,2.4,1.2,3.7C-15,158.8-15,163.8-15,168.8z M-22,168.1c0-3.1,0-6.3-0.7-9.4c-0.4-1.9-1-3.6-3.3-3.7
			c-2.4-0.1-3.6,1.4-4,3.6c-1.3,6.6-1.1,13.2,0.1,19.7c0.3,1.9,1.2,3.5,3.4,3.6c2.2,0,3.1-1.6,3.6-3.4
			C-22.1,175.1-22,171.6-22,168.1z"/>
		<path class="st1" d="M513.8,168.7c0,5,0,10,0,15c0,1.2,0.8,3-1.2,3.2c-1.8,0.1-4.7,1.2-5.4-0.7c-1-2.8-1.3-1.5-2.6-0.4
			c-4.5,3.8-10.7,2.4-12.3-3.3c-2.7-9.4-2.8-19.1,0.4-28.4c1.9-5.6,7.1-6.5,12-2.8c0.9,0.7,1.4,2.6,2.4-0.3c0.7-2,3.6-0.9,5.4-0.8
			c2.3,0.2,1.3,2.3,1.3,3.6C513.9,158.7,513.8,163.7,513.8,168.7z M506.8,168.1c0-3.1,0-6.3-0.7-9.4c-0.4-1.9-1-3.6-3.3-3.7
			c-2.4-0.1-3.6,1.4-4,3.6c-1.3,6.6-1.1,13.2,0.1,19.7c0.3,1.9,1.2,3.5,3.4,3.6c2.2,0,3.1-1.6,3.6-3.4
			C506.8,175.1,506.9,171.6,506.8,168.1z"/>
		<path class="st2" d="M308.9,252.4c-4.8,1-7.5,0.5-9.6-2.2c-1.7-2.2-3.2-2.7-5.4-0.2c-2.8,3.1-6.7,4.4-10.9,4
			c-4.8-0.5-8.7-2.5-10.4-7.3c-1.7-4.8-0.6-9.2,3-12.8c0.8-0.8,1.7-1.5,2.6-2.3c-5.5-6.6-5.8-11.8-1.1-15.4
			c4.6-3.5,12.3-2.7,15.4,1.4c3.3,4.5,1.4,9.5-6.6,14.9c2.7,2.2,5.1,4.1,7.6,6.1c0.6,0.5,1.2,1,2.1,1.7c1.6-2.6,1-5.1,1-7.5
			c0-2.1,0.5-2.9,2.8-2.9c2.6,0,2.5,1.5,2.3,3.3c-0.2,1.3,0,2.8-0.6,3.9c-2.9,5.7-0.7,9.5,4.1,12.6C306.1,250.3,307,251,308.9,252.4
			z M285.3,250c2.7,0.1,4.9-1,6.8-2.6c1.3-1,2-2,0.4-3.6c-3.2-3.1-6.3-6.4-9.5-9.6c-1-1.1-2-0.9-3,0c-2.9,3-3.9,6.5-2.5,10.5
			C278.8,248.3,281.6,249.8,285.3,250z M289.1,222.6c0-3.3-1.4-5.6-4.9-5.6c-3.6,0-5.3,2.1-5.4,5.7c0,2.9,3.3,7.1,5.5,6.6
			C287.6,228.4,289,225.9,289.1,222.6z"/>
		<path class="st1" d="M-5.9,168.5c0-4.7,0-9.3,0-14c0-4.3,3.1-6.7,6.3-4.2c2,1.6,2.4,0.7,3.7,0c6.1-3.5,12.2-0.7,12.5,6.3
			c0.5,9.3,0.2,18.6,0.3,27.9c0,3.1-2.1,2.3-3.8,2.4c-1.9,0.1-3.6,0.3-3.5-2.6c0.2-7.5,0.1-14.9,0-22.4c0-1.6-0.1-3.3-0.4-4.9
			c-0.3-1.8-1.6-2.9-3.5-3c-1.9-0.1-3.1,0.8-3.9,2.5c-1.1,2.4-0.7,4.9-0.7,7.4c0,6.6-0.2,13.3,0.1,19.9c0.1,2.8-1.1,3.3-3.5,3.2
			c-2.1-0.1-3.9,0.1-3.7-3C-5.7,178.8-5.9,173.7-5.9,168.5z"/>
		<path class="st1" d="M276,168.2c0-4.7,0-9.3,0-14c0-4,2.7-6,6.2-4c1.6,1,2,1.2,3.6,0.2c6.4-3.8,12.3-0.9,12.7,6.5
			c0.4,9.1,0.1,18.3,0.3,27.4c0.1,3.5-2.3,2.3-4.1,2.6c-2.3,0.3-3.2-0.5-3.2-3c0.1-7.5,0.1-14.9,0-22.4c0-1.5-0.1-3-0.4-4.4
			c-0.3-1.8-1.4-2.9-3.3-3.1c-2.1-0.2-3.4,0.9-4.2,2.8c-0.6,1.6-0.6,3.2-0.6,4.9c0,7.3-0.1,14.6,0.1,21.9c0,2.5-0.6,3.5-3.3,3.4
			c-2.5-0.1-4-0.2-3.9-3.4C276.2,178.5,276,173.4,276,168.2z"/>
		<path class="st1" d="M523,168.4c0-4.7,0-9.3,0-14c0-4.1,3.4-6.5,6.4-4c1.8,1.5,2,0.8,3.2,0.1c6.7-3.8,12.5-0.9,12.9,6.8
			c0.4,9,0.1,17.9,0.3,26.9c0.1,3.3-2.1,2.6-4,2.7c-2.1,0.2-3.4-0.1-3.3-2.8c0.2-7.3,0.1-14.6,0.1-21.9c0-1.3,0.1-2.7-0.1-4
			c-0.3-2.3-1.2-4.2-4-4.2c-2.7,0-3.8,1.9-4.2,4.1c-0.3,1.6-0.3,3.3-0.3,5c0,6.8-0.1,13.6,0.1,20.4c0.1,2.9-0.9,3.5-3.6,3.6
			c-3,0-3.6-1.1-3.5-3.8C523.1,178.3,523,173.4,523,168.4z"/>
		<path class="st1" d="M327,169.1c-0.2-4.8,0.4-9.2,2.2-13.4c2-4.7,5.9-7.1,10.6-6.7c4.6,0.4,8,3.4,9.2,8.5c0.2,0.6,0.3,1.3,0.4,2
			c2,10.4,1.8,10.5-8.4,10.5c-0.2,0-0.3,0-0.5,0c-2,0.4-5.1-1.2-5.8,1c-1,2.9-0.3,6.3,1.1,9.2c0.8,1.5,2.2,1.9,3.8,1.8
			c2-0.2,2.6-1.7,3.2-3.4c0.4-1.2-0.6-3,1.7-3.6c3.9-1,5.2,0.1,4.5,4.2c-0.9,5.1-4.1,8.2-8.9,8.8c-5.1,0.6-9.2-1.6-11.2-6.4
			C327.2,177.5,326.7,173.2,327,169.1z M338.8,165c1.8-0.3,4.7,1.1,4.1-2.8c-0.6-3.2,0.6-8-4.3-8c-4.6,0-3.6,4.7-4.2,7.7
			C333.6,166,336.7,164.8,338.8,165z"/>
		<path class="st1" d="M267.2,164.9c0.9,4.4-1.2,5.7-5.2,5.1c-1.3-0.2-2.7,0-4,0c-7.3,0-7.8,0.6-6,7.9c0.5,2.3,1.6,4,4.3,4
			c2.6,0,3.4-1.8,3.7-3.9c0.3-1.4-0.1-2.9,2.2-3.1c4-0.4,4.7,0.2,3.9,4.3c-0.9,5.1-4.1,8.2-8.9,8.7c-5.1,0.6-9.4-1.5-11.2-6.4
			c-3.2-8.6-3-17.3,0.2-25.9c1.8-4.8,5.9-7.1,10.6-6.6c4.6,0.4,8,3.4,9.2,8.5C266.5,159.9,266.8,162.4,267.2,164.9z M255.7,165
			c2.2-0.1,4.9,0.8,4.2-2.9c-0.6-3.1,0.4-7.6-4-7.8c-5-0.2-3.9,4.7-4.5,7.8C250.7,166.2,254,164.6,255.7,165z"/>
		<path class="st1" d="M189,169.2c-0.2-4.7,0.3-9.3,2.2-13.7c2-4.7,5.9-7,10.7-6.6c4.4,0.4,7.8,3.4,9,8.1c0.1,0.3,0.1,0.7,0.2,1
			c2.6,11.3,2.1,11.8-9.2,12c-1.8,0-4.8-1.2-5.2,1c-0.7,3.3-0.7,7.1,1.9,9.9c2.3,2.4,5.6,0.9,6.3-3c0.4-1.8,0.5-3,2.8-3.1
			c3.1-0.1,4.1,0.7,3.5,3.9c-1.1,5.3-4.1,8.6-9.1,9.1c-5.3,0.6-9.3-1.8-11.3-7C189.3,177.2,188.8,173.3,189,169.2z M200.8,165
			c2.1-0.1,4.9,0.9,4.1-2.9c-0.6-3.1,0.5-8-4.4-7.9c-4.5,0.1-3.5,4.8-4.1,7.8C195.7,166.2,199,164.6,200.8,165z"/>
		<path class="st1" d="M58,169.2c-0.1-5,0.4-9.6,2.4-13.9c2-4.4,5.5-6.5,10.4-6.2c4.5,0.3,7.9,3.3,9.2,7.9c0.2,0.6,0.3,1.3,0.4,2
			c2.2,10.9,2.1,11.1-8.7,11.2c-2,0-5.1-1.2-5.9,0.9c-1,2.9-0.3,6.3,1.1,9.2c0.7,1.5,2.2,2,3.8,1.8c2-0.2,2.7-1.7,3.3-3.3
			c0.5-1.2-0.6-3,1.6-3.7c3.7-1,5.2,0.3,4.6,4.1c-0.9,5.1-4,8.2-8.8,8.8c-5.1,0.7-9.2-1.5-11.3-6.3C58.3,177.6,57.8,173.3,58,169.2z
			 M69.6,165c2.2-0.2,5.1,0.9,4.4-3.1c-0.6-3,0.4-7.7-4.2-7.7c-4.9,0-3.8,4.9-4.3,8C64.8,166.1,67.9,164.7,69.6,165z"/>
		<path class="st1" d="M450.1,167.9c0,4.8,0,8.6-1.2,12.3c-1.6,4.8-5.6,7.8-10.4,7.8c-5,0.1-8.9-2.5-10.4-7.6
			c-2.4-8-2.4-16.1,0-24.1c1.4-4.8,5.7-7.5,10.6-7.3c4.8,0.1,8.8,3.2,10.2,8C450,160.8,450.2,164.8,450.1,167.9z M433.9,167.6
			c0.1,4-0.1,8,0.9,11.9c0.5,1.9,1.4,3.4,3.6,3.5c2.2,0,3.2-1.4,3.6-3.4c1.4-7.4,1.1-14.9-0.2-22.3c-0.3-1.7-1.3-3.1-3.3-3.2
			c-2.2-0.1-3.2,1.3-3.8,3.2C433.7,160.6,434,164.1,433.9,167.6z"/>
		<path class="st2" d="M380.1,222.6c-4.5-2.6-9.1-5-14.5-4.7c-2.6,0.1-4.9,0.6-7.1,2c-6.4,4.1-8.6,15.3-4.5,23
			c3.4,6.3,12.1,9.1,19.2,5.9c4.2-1.9,1.8-5.9,2.1-8.9c0.3-3.2-2.5-1.6-3.9-2.1c-2-0.8-5.9,2.1-5.7-2.2c0.2-3.4,3.7-1.6,5.7-1.7
			c9.2-0.2,9.2-0.1,9.2,8.9c0,8.4,0,8.4-8.4,10.3c-7.9,1.7-15.6,1-21-5.7c-5.6-7-5.6-15.1-2.4-23.2c3-7.5,11.4-11.5,20.8-10.3
			c2.3,0.3,4.5,1,6.8,1.5C380.3,216.4,381.6,218.6,380.1,222.6z"/>
		<path class="st2" d="M82.3,222.5c-4.5-2.4-9-4.9-14.5-4.7c-6.4,0.3-11.1,3.7-12.8,9.8c-1.5,5.3-1.2,10.6,1.4,15.5
			c3.4,6.3,12.9,9.1,19.3,5.5c3.8-2.1,1.5-6,1.7-9.1c0.2-2.7-2.5-1.2-3.8-1.8c-2-0.8-6,2.1-5.8-2c0.1-3.8,4-1.7,6-1.8
			c8.8-0.3,8.8-0.1,8.8,8.7c0,8.5,0,8.5-8.3,10.4c-7.9,1.7-15.6,1.1-21-5.5c-5.7-6.9-5.7-15.1-2.5-23.1c3-7.6,11.2-11.5,20.7-10.4
			c2.3,0.3,4.5,1,6.8,1.5C82.2,216.3,83.6,218.5,82.3,222.5z"/>
		<path class="st2" d="M196.1,233.6c0-5,0.1-10-0.1-15c-0.1-2.7,0.6-3.9,3.5-3.7c3.8,0.3,7.7-0.2,11.4,0.3
			c11.5,1.6,17.5,8.8,16.9,20c-0.5,10.1-7.7,17-18.6,17.6c-13.2,0.8-13.2,0.8-13.2-12.3C196.1,238.2,196.1,235.9,196.1,233.6z
			 M201,233.9c0,2.7,0,5.3,0,8c0,7.5,0,7.5,7.6,7c7.2-0.5,11.9-3.9,13.4-9.8c3.4-13.1-5.4-22.4-19-20.3c-2.3,0.4-2.1,1.6-2.1,3.1
			C201,226,201,229.9,201,233.9z"/>
		<path class="st2" d="M502,233.7c0-5.3,0-10.6,0-16c0-1.7,0.1-2.9,2.3-2.8c4.3,0.2,8.7-0.2,12.9,0.4c11.4,1.6,17.4,9.1,16.6,20.2
			c-0.7,10.1-8,16.8-19,17.3c-12.9,0.6-12.9,0.6-12.9-12.2C502,238.4,502,236,502,233.7z M507,233.8c0,3,0,6,0,9
			c0,6.3,0,6.3,6.5,6.1c7.9-0.2,12.9-3.6,14.5-9.7c3.5-13.1-5-22.2-18.8-20.4c-2.2,0.3-2.2,1.4-2.2,3C507,225.8,507,229.8,507,233.8
			z"/>
		<path class="st2" d="M-7.1,252.4c-4.1,1.2-6.8,0.3-9-2.9c-2.3-3.2-5.1-6.1-7.7-9.2c-0.8-1-1.5-2.1-3-2.4c-4.7-1.1-6.1,0-6.1,5
			c0,2.5-0.1,5,0,7.5c0.1,1.9-0.6,2.6-2.6,2.6c-2.1,0-2.5-1-2.4-2.7c0-10.8,0-21.6,0-32.4c0-1.7,0.1-3,2.3-2.8
			c4.6,0.3,9.3-0.5,13.9,0.5c4.3,0.9,7.4,3.2,8.3,7.6c0.9,4.4,0,8.8-3.9,11.1c-4,2.4-2.4,3.9-0.3,6.2
			C-14,244.2-10.7,248.3-7.1,252.4z M-27.5,219c-1.3,0-2.7-0.2-4,0c-2.5,0.6-1.5,2.8-1.3,4.1c0.4,3.6-2.1,8.6,1.4,10.4
			c3.1,1.6,8,1.3,11.1-2.1c2.2-2.4,2.6-5.4,1.5-8.4C-20.4,219-23.9,218.9-27.5,219z"/>
		<path class="st2" d="M132,234.1c0,5.3-0.1,10.6,0,15.9c0,2-0.3,3-2.7,3c-2.2-0.1-2.3-1.1-2.3-2.8c0.1-4.5-0.1-9,0.1-13.5
			c0.1-2.2-0.7-2.9-2.8-2.8c-4.3,0.1-8.7,0.2-13,0c-2.8-0.1-3.3,1.1-3.2,3.5c0.2,4.3,0,8.6,0.1,13c0,1.9-0.5,2.6-2.5,2.6
			c-2,0-2.5-0.9-2.5-2.7c0.1-11,0.1-21.9,0-32.9c0-2.1,1-2.4,2.7-2.4c1.8,0,2.3,0.7,2.3,2.3c-0.1,2.7,0.3,5.4-0.1,8
			c-0.6,4.2,1.3,5.3,5,4.7c0.3,0,0.7,0,1,0c4.1-0.1,9.3,1.3,12.1-0.7c2.8-1.9,0.6-7.4,0.9-11.3c0.1-1.9,0.1-3.1,2.6-3.1
			c2.6,0,2.4,1.5,2.4,3.2C132,223.4,132,228.7,132,234.1z"/>
		<path class="st1" d="M407,156.9c0,7,0.1,14,0,21c0,2.4,0.7,3.3,3.1,3.1c2-0.2,4,0.1,6-0.1c2.2-0.1,3.3,0.3,3.3,2.9
			c0,2.3-0.6,3.5-3.1,3.1c-0.2,0-0.3,0-0.5,0c-5.1-0.1-11.8,1.7-15-0.8c-3.3-2.7-0.9-9.6-1-14.7c-0.1-11.5,0-23-0.1-34.5
			c0-2.8,0.4-4.1,3.7-4.1c3.4,0,3.7,1.3,3.7,4.1C406.9,143.6,407,150.3,407,156.9z"/>
		<path class="st2" d="M153.1,233.9c0-5.2,0.1-10.3,0-15.5c-0.1-2.3,0.3-3.7,3.2-3.6c6.3,0.2,12.6,0,19,0.1c1.2,0,2.7-0.4,2.8,1.7
			c0.1,2.3-1.3,2.2-2.9,2.2c-4.5,0-9,0.1-13.5-0.1c-2.8-0.1-4,0.7-3.6,3.6c0.1,1,0.2,2,0,3c-0.7,3.8,1,4.9,4.6,4.6
			c4.1-0.3,8.3-0.1,12.5-0.1c1.6,0,3-0.1,2.8,2.2c-0.1,2.2-1.6,1.7-2.8,1.7c-4.7,0-9.3,0.1-14,0c-2.3-0.1-3.1,0.6-3.2,3
			c-0.6,12-0.7,12,11.2,12c2.3,0,4.7,0,7,0c1.6,0,1.9,0.9,1.9,2.2c0,1.3-0.6,1.8-1.8,1.8c-7,0-14,0-21,0c-2.3,0-2.1-1.5-2.1-3
			C153.1,244.6,153.1,239.3,153.1,233.9z"/>
		<path class="st2" d="M553,233.8c0-5.3,0.1-10.6,0-16c0-2.1,0.5-3,2.8-2.9c6.5,0.1,13,0,19.5,0c1.3,0,2.6-0.2,2.7,1.9
			c0.1,2.5-1.6,2.1-3,2.1c-4.5,0-9,0.2-13.5-0.1c-2.9-0.2-3.5,1-3.6,3.7c0,7.4-0.1,7.4,7.3,7.4c2.5,0,5-0.3,7.5,0.1
			c1.8,0.3,4.9-1.8,5.1,1.8c0.2,3.9-3.2,1.9-4.8,2c-3.8,0.3-7.7,0.3-11.5,0c-2.9-0.2-3.5,1-3.6,3.7c-0.2,11.4-0.3,11.4,11.3,11.4
			c2.2,0,4.3,0,6.5,0c1.3,0,2.2,0.2,2.2,1.8c0,1.4-0.4,2.1-1.9,2.1c-7,0-14,0-21,0c-2.4,0-2-1.7-2-3.1
			C553,244.4,553,239.1,553,233.8z"/>
		<path class="st1" d="M163.3,180.4c3.8,0.8,7.7,3.7,10-0.5c2.3-4.2-1.8-6.5-4.3-9c-2.1-2.1-4.6-3.8-5.9-6.7
			c-1.9-4.3-1.6-8.4,1.6-12.1c2.9-3.3,8.3-4.3,12.4-2.6c3.2,1.3,1.1,3.9,1.8,6c-3.7-0.2-7.7-2.4-9.8,1.6c-2.2,4.4,2.1,6.4,4.5,8.9
			c1.7,1.8,3.6,3.4,5.1,5.4c3,4.1,2.6,9.3-0.5,12.9c-3.1,3.5-8.4,4.4-12.8,2.5C162.1,185.5,163.4,183,163.3,180.4z"/>
		<path class="st1" d="M236.3,155.3c-6.4-0.7-8.3,0.7-9,7.2c-0.4,3.8-0.4,7.7-0.1,11.4c0.6,6.8,2.5,8.3,9.1,7.6
			c0.6,5.6,0.2,6.2-5.1,6.3c-5,0.2-8.5-1.9-10-6.6c-2.6-8.3-2.8-16.8-0.1-25c1.4-4.4,4.7-7.2,9.6-7.4
			C236.1,148.9,236.9,149.9,236.3,155.3z"/>
		<path class="st1" d="M310,170.6c0-3.5,0.1-7,0-10.5c-0.1-2.3,1.3-5.3-3.3-5.5c-1.5,0-1.3-4.3-0.2-4.3c5.3-0.1,3.6-3.9,3.5-6.3
			c-0.3-3.8,1.3-4.4,4.6-4.2c1.9,0.2,2.4,0.6,2.7,2.5c0.3,3-2.5,7.6,3.8,8.1c0.4,0,2.1,4.1-1.2,4.3c-2.9,0.2-2.7,1.6-2.7,3.5
			c0,8.1,0,16.3,0,24.4c0,2.4,0.3,4.3-3.4,4.3c-4,0.1-3.7-1.9-3.7-4.6C310,178.6,310,174.6,310,170.6z"/>
		<path class="st1" d="M459.5,158.8c0-8.1,0.1-16.3,0-24.4c0-2.5,0.6-3.5,3.3-3.5c2.7,0,3.7,0.7,3.7,3.6c-0.1,16.3-0.1,32.6,0,48.8
			c0,2.7-0.6,3.7-3.5,3.7c-3.1,0-3.5-1.3-3.4-3.8C459.6,175.1,459.5,167,459.5,158.8z"/>
		<path class="st1" d="M482.4,159.2c0,8-0.1,15.9,0,23.9c0,2.5-0.1,4-3.3,3.9c-2.8-0.1-3.6-0.8-3.6-3.7c0.1-16.3,0.1-32.6,0-48.8
			c0-2.8,0.8-3.6,3.6-3.7c3.2-0.1,3.4,1.4,3.4,3.9C482.3,143,482.4,151.1,482.4,159.2z"/>
		<path class="st2" d="M34.5,215.5c-2.9,4.7-5.4,9.3-8.5,13.6c-3.5,4.8-5.3,9.9-4.5,15.8c0.2,1.8,0,3.7,0.1,5.5
			c0.1,1.9-0.6,2.6-2.6,2.6c-1.7,0-2.6-0.7-2.3-2.3c2.5-12.8-5-22.1-11.1-31.9c-0.6-1-1.1-2-1.8-3.2c3.4-1.4,5.3-0.5,7,2.5
			c2.5,4.5,5.3,8.8,8.4,13.8c3.1-5,6.1-9.3,8.6-13.9C29.2,214.9,31.2,214.4,34.5,215.5z"/>
		<path class="st1" d="M128.1,154c1.9-1.7,3.2-2.9,4.7-4c1.1-0.8,2.5-1.6,3.7-0.9c1.3,0.8,0.4,2.4,0.6,3.7c0.3,2-1,2-2.4,2.2
			c-4.7,0.6-6.5,3.6-6.5,8c-0.1,6.7-0.2,13.3,0,20c0.1,2.9-0.4,4.1-3.7,4c-3.1-0.1-3.4-1.4-3.4-3.9c0.1-9.7,0-19.3,0.1-29
			c0-1.6-1.3-4.3,2.3-4.3C125.9,150,129.1,149.1,128.1,154z"/>
		<path class="st1" d="M365.8,154.2c2.2-1.9,3.5-3.1,5-4.2c1.1-0.8,2.6-1.6,3.7-0.8c1.2,0.8,0.4,2.5,0.6,3.8c0.3,2-1.2,1.9-2.5,2.1
			c-4.7,0.6-6.4,3.7-6.4,8c-0.1,6.8-0.1,13.7,0,20.5c0.1,2.5-0.6,3.5-3.3,3.4c-2.5-0.1-3.9-0.3-3.8-3.4c0.2-10,0.1-20,0.1-30
			c0-2.1-0.2-4,2.9-3.7C364.3,150.2,367,149.5,365.8,154.2z"/>
		<path class="st2" d="M400,234.1c0-5.1,0-10.3,0-15.4c0-1.7-0.7-3.7,2.4-3.7c3-0.1,2.5,1.8,2.5,3.6c0,9,0.1,17.9-0.1,26.9
			c-0.1,2.8,0.8,3.8,3.6,3.6c4.3-0.2,8.6,0,12.9-0.1c1.6,0,2.5,0.3,2.4,2.2c-0.1,1.7-1,1.8-2.3,1.8c-6.5,0-13-0.1-19.4,0
			c-2.3,0-2.2-1.3-2.2-2.9C400.1,244.7,400,239.4,400,234.1z"/>
		<path class="st2" d="M-72.3,236c0-4.7-0.1-9.3,0-14c0.1-2.4-0.8-3.3-3.2-3.1c-2.7,0.2-5.3,0-8,0c-1.5,0-2.6-0.1-2.5-2.1
			c0-2.1,1.4-1.9,2.7-1.9c9,0,18,0,27,0c1.6,0,2.4,0.4,2.4,2.2c-0.1,1.7-1.1,1.8-2.3,1.7c-2.7,0-5.3,0.2-8,0
			c-2.7-0.2-3.4,0.9-3.4,3.4c0.1,9,0.1,18,0,26.9c0,1.8,0.5,3.8-2.5,3.7c-2.7-0.1-2.2-1.9-2.2-3.5C-72.4,245-72.3,240.5-72.3,236z"
			/>
		<path class="st1" d="M145.6,168.4c0-5.1,0.2-10.3-0.1-15.4c-0.1-3,1.5-3,3.7-3c2.3-0.1,3.2,0.5,3.2,3c-0.1,10.4-0.1,20.9,0,31.3
			c0,2.8-1.4,2.8-3.4,2.8c-2,0-3.5,0.1-3.4-2.7C145.7,179,145.6,173.7,145.6,168.4z"/>
		<path class="st1" d="M-162,201c3-0.4,2.6-2.9,2.9-4.9c0.5-2.6,0.6-5.2,1.2-7.8c0.4-1.9,1.6-3.3,3.7-3.3c1.8,0.1,3,1.4,3.4,3.1
			c1.2,6.3,0.7,12.5-2.4,18.1c-1.8,3.3-4.7,3.3-7.2,0.4c-1.2-1.4-2.3-2.8-2.4-4.8l-0.1,0.1c0.6-0.1,1-0.5,1.1-1.1L-162,201z"/>
		<path class="st1" d="M-160,160c4.1-2.1,8.6-1.3,12.7-0.6c2.4,0.4,3,3.5,2.2,5.8c-0.8,2.3-0.9,4.5-0.9,6.8c0,0,0-0.1,0-0.1
			c-1.1,0.3-1.9,0.9-2.1,2.1l0.1-0.1c-2.2,0.9-3.9-1.6-6.1-1l0.1,0.1c-1.6-4.1-0.4-9.3-5.1-12.1c0,0,0.1,0.1,0.1,0.1
			c-0.4-0.4-0.7-0.7-1.1-1.1L-160,160z M-148.5,166.3c-0.3-0.1-0.6-0.3-0.8-0.3c-0.1,0-0.3,0.3-0.4,0.5c0.3,0.1,0.5,0.3,0.8,0.3
			C-148.8,166.8-148.7,166.5-148.5,166.3z"/>
		<path class="st1" d="M152.8,137.8c-0.2,2.2-1.2,3.9-3.5,4.1c-2.4,0.2-3.8-1.3-4-3.5c-0.2-2.4,1.1-4.2,3.7-4.3
			C151.2,134,152.3,135.7,152.8,137.8z"/>
		<path class="st0" d="M-206.9,133.9c0.2,1-0.5,1-1.1,1.1C-208.2,134.1-207.4,134.1-206.9,133.9z"/>
		<path class="st0" d="M-165.9,171c-2.4,4.3-2.1,9.3-3.5,14.5c-1.3-6.1,0.6-11.4,0.5-16.8c0-2.5,0.2-4.8-3.2-5
			c-3.5-0.2-3.9,2-4.1,4.8c-0.4,5.4-1.2,10.8-1.8,16.3c-0.1,0.7-0.2,1.3-1.1,1.1l0.1,0.1c-0.6-4.7,1.1-9.1,1.6-13.7
			c0.2-1.8,0.5-3.4-1.4-4.2c-2.2-0.9-3.5,0.7-4.2,2.4c-1.5,3.7-2.7,7.4-3.9,11.2c-0.5,1.6-1,3.1-2,4.4l0.1,0.1
			c0-0.2-0.2-0.3-0.1-0.5c1.6-4.7,1.9-9-3.2-11.9c1.1-0.1,1.9,0.5,2.7,1c1.7,1.1,2.7,1.1,3.4-1.3c1.1-3.8,2.5-7.7,7.7-7.6
			c1,0,1.1-1,1.6-1.6c1.6-1.9,3.5-3.2,6-2c2.5,1.1,3.8,3.1,3.4,5.9C-167.2,169.4-167.7,170.7-165.9,171z"/>
		<path class="st0" d="M-159,160.9c4.7,2.8,3.6,8,5.1,12.1c-3.6-1.2-3.1-4.6-3.7-7.2C-158,164.2-158.5,162.6-159,160.9z"/>
		<path class="st0" d="M-154,172.9c2.2-0.6,3.9,1.9,6.1,1C-150.3,176.1-152.2,174.9-154,172.9z"/>
		<path class="st0" d="M-148,174c0.2-1.2,1-1.8,2.1-2.1C-145.9,173.3-146.6,174-148,174z"/>
		<path class="st0" d="M-191.9,174c-1.3,0.7-1.9,0.2-2.1-1.1C-193.1,173-192.1,172.7-191.9,174z"/>
		<path class="st0" d="M-160,159.9c0.4,0.4,0.7,0.7,1.1,1.1C-159.8,161.2-160.2,160.8-160,159.9z"/>
		<path class="st0" d="M-173.7,195.3c1.2-1,2.3-2,3.8-3.2C-170.2,194.3-170.7,195.8-173.7,195.3z"/>
		<path class="st0" d="M-180.7,191.3c-0.9-2.3,0.6-3.7,1.8-5.3l-0.1-0.1c0.9,2.2-0.6,3.7-1.8,5.3L-180.7,191.3z"/>
		<path class="st0" d="M-180.8,191.2c-0.3,0.1-0.5,0.2-0.8,0.4c0.1-0.2,0.2-0.4,0.2-0.6c0.2,0.1,0.4,0.3,0.6,0.4L-180.8,191.2z"/>
		<path class="st0" d="M-161.9,200.9c-0.1,0.7-0.5,1-1.1,1.1C-163.5,200.7-162.5,201-161.9,200.9z"/>
		<path class="st0" d="M-188.8,186.2c-0.2,0.2-0.5,0.4-0.7,0.5c0-0.2,0-0.4,0-0.6c0.3,0.1,0.5,0.1,0.8,0.2L-188.8,186.2z"/>
		<path class="st0" d="M42.3,168.2c-0.3,3.5-0.1,7-1.2,10.4c-0.6,1.9-1.5,3.4-3.8,3.3c-2-0.1-2.9-1.6-3.2-3.3
			c-1.3-6.6-1.4-13.2-0.1-19.8c0.4-2.1,1.5-3.9,4-3.7c2.2,0.1,3.1,1.8,3.4,3.7C41.9,161.9,42,165,42.3,168.2z"/>
		<path class="st0" d="M571.2,168.1c-0.3,3.5-0.1,7-1.1,10.4c-0.6,1.9-1.5,3.5-3.7,3.4c-2.2-0.1-3.1-1.8-3.4-3.7
			c-1.2-6.4-1.2-12.9,0-19.4c0.4-2.1,1.4-3.9,3.9-3.8c2.5,0.1,3.3,2,3.6,4.1C570.8,162.1,570.9,165.1,571.2,168.1z"/>
		<path class="st0" d="M447.6,234.6c1.9-4.8,3.7-9,5.2-13.3c0.9-2.6,2.7-2.6,4.7-2.4c2.5,0.2,1.3,2.2,1.6,3.5c0.1,0.8,0,1.6,0,2.5
			C459.1,235.6,459.1,235.6,447.6,234.6z"/>
		<path class="st0" d="M-22,168.1c0,3.5-0.1,7-0.9,10.4c-0.5,1.9-1.4,3.5-3.6,3.4c-2.2,0-3.1-1.6-3.4-3.6
			c-1.1-6.6-1.4-13.2-0.1-19.7c0.4-2.2,1.6-3.7,4-3.6c2.3,0.1,2.9,1.8,3.3,3.7C-22,161.8-22.1,165-22,168.1z"/>
		<path class="st0" d="M506.8,168.1c0,3.5-0.1,7-0.9,10.4c-0.5,1.9-1.4,3.5-3.6,3.4c-2.2,0-3.1-1.6-3.4-3.6
			c-1.1-6.6-1.4-13.2-0.1-19.7c0.4-2.2,1.6-3.7,4-3.6c2.3,0.1,2.9,1.8,3.3,3.7C506.8,161.8,506.8,165,506.8,168.1z"/>
		<path class="st0" d="M285.3,250c-3.7-0.1-6.4-1.6-7.7-5.2c-1.4-4-0.4-7.5,2.5-10.5c1-1,1.9-1.1,3,0c3.1,3.2,6.2,6.5,9.5,9.6
			c1.6,1.5,0.8,2.6-0.4,3.6C290.1,248.9,287.9,250,285.3,250z"/>
		<path class="st0" d="M289.1,222.6c0,3.3-1.5,5.8-4.7,6.6c-2.2,0.5-5.5-3.7-5.5-6.6c0-3.5,1.7-5.7,5.4-5.7
			C287.7,217,289,219.3,289.1,222.6z"/>
		<path class="st0" d="M338.8,165c-2.1-0.2-5.2,1-4.4-3.1c0.6-3-0.4-7.7,4.2-7.7c4.9,0,3.7,4.8,4.3,8
			C343.6,166.1,340.6,164.7,338.8,165z"/>
		<path class="st0" d="M255.7,165c-1.7-0.4-5.1,1.3-4.3-2.9c0.6-3.1-0.5-8.1,4.5-7.8c4.4,0.2,3.4,4.8,4,7.8
			C260.6,165.8,257.9,164.9,255.7,165z"/>
		<path class="st0" d="M200.8,165c-1.8-0.3-5.1,1.2-4.3-2.9c0.5-3-0.4-7.7,4.1-7.8c5-0.1,3.8,4.7,4.4,7.9
			C205.6,165.8,202.8,164.9,200.8,165z"/>
		<path class="st0" d="M69.6,165c-1.7-0.3-4.8,1.1-4.1-2.7c0.6-3.1-0.6-8,4.3-8c4.5,0,3.6,4.6,4.2,7.7
			C74.7,165.9,71.7,164.8,69.6,165z"/>
		<path class="st0" d="M433.9,167.6c0.1-3.5-0.2-7,0.8-10.4c0.6-1.9,1.6-3.3,3.8-3.2c2,0.1,3,1.5,3.3,3.2c1.3,7.4,1.6,14.8,0.2,22.3
			c-0.4,2-1.5,3.4-3.6,3.4c-2.2,0-3.1-1.5-3.6-3.5C433.8,175.6,434,171.6,433.9,167.6z"/>
		<path class="st0" d="M201,233.9c0-4,0-8,0-12c0-1.5-0.2-2.7,2.1-3.1c13.6-2.1,22.4,7.2,19,20.3c-1.5,5.9-6.2,9.3-13.4,9.8
			c-7.6,0.5-7.6,0.5-7.6-7C201,239.3,201,236.6,201,233.9z"/>
		<path class="st0" d="M507,233.8c0-4,0-8,0-12c0-1.6,0-2.7,2.2-3c13.7-1.8,22.3,7.3,18.8,20.4c-1.6,6.1-6.7,9.5-14.5,9.7
			c-6.5,0.2-6.5,0.2-6.5-6.1C507,239.8,507,236.8,507,233.8z"/>
		<path class="st0" d="M-27.5,219c3.6-0.1,7.2,0.1,8.7,4.1c1.1,3,0.7,6-1.5,8.4c-3.1,3.4-8,3.7-11.1,2.1c-3.5-1.8-1-6.8-1.4-10.4
			c-0.2-1.3-1.2-3.5,1.3-4.1C-30.2,218.7-28.8,219-27.5,219z"/>
		<path class="st0" d="M-148.5,166.3c-0.2,0.2-0.3,0.5-0.4,0.5c-0.3,0-0.5-0.2-0.8-0.3c0.1-0.2,0.3-0.5,0.4-0.5
			C-149.1,166-148.8,166.2-148.5,166.3z"/>
	</g>
</g>
</svg>
