<svg id="visual" viewBox="0 0 900 600" width="900" height="600" xmlns="http://www.w3.org/2000/svg" xmlns:xlink="http://www.w3.org/1999/xlink" version="1.1"><path d="M0 364L21.5 363.5C43 363 86 362 128.8 354.3C171.7 346.7 214.3 332.3 257.2 318.2C300 304 343 290 385.8 288C428.7 286 471.3 296 514.2 311.5C557 327 600 348 642.8 340.8C685.7 333.7 728.3 298.3 771.2 286.8C814 275.3 857 287.7 878.5 293.8L900 300L900 601L878.5 601C857 601 814 601 771.2 601C728.3 601 685.7 601 642.8 601C600 601 557 601 514.2 601C471.3 601 428.7 601 385.8 601C343 601 300 601 257.2 601C214.3 601 171.7 601 128.8 601C86 601 43 601 21.5 601L0 601Z" fill="#fff8f0"></path><path d="M0 329L21.5 339.8C43 350.7 86 372.3 128.8 366.7C171.7 361 214.3 328 257.2 325.2C300 322.3 343 349.7 385.8 349.8C428.7 350 471.3 323 514.2 310C557 297 600 298 642.8 309.7C685.7 321.3 728.3 343.7 771.2 343.5C814 343.3 857 320.7 878.5 309.3L900 298L900 601L878.5 601C857 601 814 601 771.2 601C728.3 601 685.7 601 642.8 601C600 601 557 601 514.2 601C471.3 601 428.7 601 385.8 601C343 601 300 601 257.2 601C214.3 601 171.7 601 128.8 601C86 601 43 601 21.5 601L0 601Z" fill="#dacec3"></path><path d="M0 355L21.5 369C43 383 86 411 128.8 416.3C171.7 421.7 214.3 404.3 257.2 400.5C300 396.7 343 406.3 385.8 404.7C428.7 403 471.3 390 514.2 390.2C557 390.3 600 403.7 642.8 409.2C685.7 414.7 728.3 412.3 771.2 414.3C814 416.3 857 422.7 878.5 425.8L900 429L900 601L878.5 601C857 601 814 601 771.2 601C728.3 601 685.7 601 642.8 601C600 601 557 601 514.2 601C471.3 601 428.7 601 385.8 601C343 601 300 601 257.2 601C214.3 601 171.7 601 128.8 601C86 601 43 601 21.5 601L0 601Z" fill="#b8a598"></path><path d="M0 418L21.5 415.2C43 412.3 86 406.7 128.8 407.8C171.7 409 214.3 417 257.2 421.3C300 425.7 343 426.3 385.8 425.2C428.7 424 471.3 421 514.2 421.3C557 421.7 600 425.3 642.8 425C685.7 424.7 728.3 420.3 771.2 427C814 433.7 857 451.3 878.5 460.2L900 469L900 601L878.5 601C857 601 814 601 771.2 601C728.3 601 685.7 601 642.8 601C600 601 557 601 514.2 601C471.3 601 428.7 601 385.8 601C343 601 300 601 257.2 601C214.3 601 171.7 601 128.8 601C86 601 43 601 21.5 601L0 601Z" fill="#967e70"></path><path d="M0 482L21.5 476.5C43 471 86 460 128.8 455.5C171.7 451 214.3 453 257.2 452C300 451 343 447 385.8 455.5C428.7 464 471.3 485 514.2 486.5C557 488 600 470 642.8 470.2C685.7 470.3 728.3 488.7 771.2 493.2C814 497.7 857 488.3 878.5 483.7L900 479L900 601L878.5 601C857 601 814 601 771.2 601C728.3 601 685.7 601 642.8 601C600 601 557 601 514.2 601C471.3 601 428.7 601 385.8 601C343 601 300 601 257.2 601C214.3 601 171.7 601 128.8 601C86 601 43 601 21.5 601L0 601Z" fill="#76584b"></path><path d="M0 486L21.5 484.3C43 482.7 86 479.3 128.8 486.7C171.7 494 214.3 512 257.2 517.3C300 522.7 343 515.3 385.8 511.7C428.7 508 471.3 508 514.2 511.3C557 514.7 600 521.3 642.8 518C685.7 514.7 728.3 501.3 771.2 493C814 484.7 857 481.3 878.5 479.7L900 478L900 601L878.5 601C857 601 814 601 771.2 601C728.3 601 685.7 601 642.8 601C600 601 557 601 514.2 601C471.3 601 428.7 601 385.8 601C343 601 300 601 257.2 601C214.3 601 171.7 601 128.8 601C86 601 43 601 21.5 601L0 601Z" fill="#56352a"></path><path d="M0 560L21.5 559.7C43 559.3 86 558.7 128.8 559C171.7 559.3 214.3 560.7 257.2 557.3C300 554 343 546 385.8 547.2C428.7 548.3 471.3 558.7 514.2 563.5C557 568.3 600 567.7 642.8 564.7C685.7 561.7 728.3 556.3 771.2 555.8C814 555.3 857 559.7 878.5 561.8L900 564L900 601L878.5 601C857 601 814 601 771.2 601C728.3 601 685.7 601 642.8 601C600 601 557 601 514.2 601C471.3 601 428.7 601 385.8 601C343 601 300 601 257.2 601C214.3 601 171.7 601 128.8 601C86 601 43 601 21.5 601L0 601Z" fill="#37130a"></path></svg>