<!DOCTYPE svg PUBLIC "-//W3C//DTD SVG 1.1//EN" "http://www.w3.org/Graphics/SVG/1.1/DTD/svg11.dtd">
<!-- Uploaded to: SVG Repo, www.svgrepo.com, Transformed by: SVG Repo Mixer Tools -->
<svg fill="#8abf2c" version="1.1" id="_x31__1_" xmlns="http://www.w3.org/2000/svg" xmlns:xlink="http://www.w3.org/1999/xlink" viewBox="0 0 128 128" xml:space="preserve" width="800px" height="800px">
<g id="SVGRepo_bgCarrier" stroke-width="0"/>
<g id="SVGRepo_tracerCarrier" stroke-linecap="round" stroke-linejoin="round"/>
<g id="SVGRepo_iconCarrier"> <g> <rect x="0.3" y="122.2" width="127.7" height="5.8"/> <circle cx="78.8" cy="110.1" r="10"/> <path d="M70.2,55.3c-0.4,0.8-0.8,1.5-1.1,2.5c-1.6,6.9-2.5,14.1-2.5,21.5c0,0.5,0,1.8,0,1.9c0,2.8,0.7,5.6,2,8h-7.4 c-0.4,0-0.8,0.1-1.2,0.2c-1.4,0.3-2.6,1.4-3,2.9l-6.6,22.4c-0.6,2.2,0.6,4.5,2.8,5.2c0.4,0.1,0.8,0.2,1.2,0.2c1.8,0,3.5-1.2,4-3 l5.7-19.4l17.7,0.1c3.2,0,5.6-2.5,5.6-5.6V57.7c0.1-1.5-2.2-5.6-3.8-7.9L56.1,2.4c-1.6-2.5-6.3-3.5-8.8-1c-2.5,2.5-2.6,5.6,0,9.9 L70.2,55.3z"/> </g> </g>
</svg>